<svg xmlns="http://www.w3.org/2000/svg" width="680" height="620" viewBox="0 0 68 62" shape-rendering="crispEdges" stroke-width="1"><g transform="translate(0 .5)"><path stroke="#2c0d0d" d="M25 10h5m-6 1h1m5 0h4m-13 1h1m1 0h1m11 0h2m-18 1h2m16 0h1m-21 1h2m19 0h3m-26 1h2m22 0h1m-26 1h2m26 0h1m-29 1h1m28 0h3m-33 1h2m31 0h1m0 1h2m0 1h1m-1 1h1m-41 1h1m39 0h1m-42 1h1m41 0h1m-44 1h1m42 0h1m-44 1h1m34 0h1m7 0h1m-45 1h1m35 0h1m7 0h1m-46 1h1m36 0h1m7 0h1m-47 1h1m38 0h1m5 0h1m-46 1h1m39 0h1m3 0h1m-36 1h1m21 0h3m10 0h3m-38 1h1m39 0h2m-52 1h1m10 0h1m41 0h1m-1 1h1m-42 1h1m8 0h1m32 0h1m-43 1h1m5 0h4m-10 1h1m15 0h2m-30 1h1m9 0h1m2 0h1m13 0h4m26 0h1m-58 1h1m9 0h1m1 0h3m12 0h3m28 0h1m-58 1h1m7 0h3m17 0h1m29 0h1m-31 1h2m-28 1h1m3 0h1m22 0h1m-27 1h4m-4 1h4m-3 1h1m33 0h1m-36 1h1m-1 1h1m14 0h1m-16 1h1m14 0h1m-16 1h1m14 0h1m-15 1h1m55 0h1m-57 1h2m12 0h2m11 0h3m20 0h2m3 0h1m-55 1h1m4 0h3m4 0h1m2 0h1m9 0h1m2 0h1m6 0h1m12 0h4m2 0h1m-54 1h11m5 0h8m4 0h5m6 0h7m4 0h3m-18 1h3m1 0h7"/><path stroke="#da8967" d="M41 15h1m-30 4h1m-3 3h1m30 0h1m-1 1h1m0 1h1m0 3h1m4 0h1m-36 1h1m30 0h1m2 0h2m-36 1h1m23 0h2m4 0h1m1 0h3m-45 1h1m30 0h1m12 0h1m3 0h1m-49 1h1m10 0h1m37 0h1m2 0h1m-44 1h2m24 0h1m-27 1h3m10 0h1m11 0h1m-26 1h3m10 0h1m-15 1h4m5 0h1m-11 1h5m1 0h1m5 0h1m36 0h1m-58 1h1m6 0h1m1 0h2m1 0h2m-14 1h1m5 0h1m1 0h3m1 0h1m3 0h1m14 0h1m-29 1h3m1 0h3m3 0h1m2 0h1m12 0h1m1 0h1m-29 1h1m2 0h2m1 0h1m19 0h1m31 0h1m-59 1h1m3 0h1m1 0h1m7 0h1m9 0h4m-13 1h1m12 0h2m8 0h1m20 0h1m-45 1h1m12 0h2m8 0h1m20 0h1m-44 1h1m-1 1h3m14 3h3m24 0h1m-44 1h1m14 0h2m-29 1h2m6 0h1m2 0h1m-12 1h1m2 0h1m3 0h4m4 0h1m35 0h1m-19 1h2m3 1h1"/><path stroke="#f6a377" d="M34 11h1m-3 1h1m-11 1h1m12 1h2m0 1h2m1 0h1m-3 1h2m1 0h1m-3 1h1m-28 1h1m26 0h1m3 0h2m-32 1h1m25 0h2m4 0h2m-36 1h1m27 0h3m4 0h2m-37 1h1m27 0h3m4 0h2m-9 1h2m7 0h1m-36 1h1m25 0h2m1 0h1m5 0h2m-42 1h1m3 0h2m25 0h3m5 0h1m1 0h1m-38 1h3m20 0h7m1 0h2m1 0h2m1 0h1m-37 1h2m17 0h2m1 0h7m1 0h7m-44 1h1m6 0h2m14 0h13m2 0h4m1 0h1m-22 1h13m1 0h1m2 0h2m-35 1h1m2 0h1m6 0h2m3 0h10m-25 1h1m1 0h1m6 0h10m2 0h1m-23 1h2m2 0h1m3 0h8m-16 1h1m3 0h1m1 0h10m-16 1h1m3 0h2m1 0h7m-15 1h2m4 0h6m14 0h1m-28 1h2m5 0h4m15 0h2m21 0h1m-55 1h1m1 0h1m1 0h2m7 0h1m3 0h1m-18 1h2m1 0h2m1 0h1m6 0h1m-14 1h4m1 0h1m-2 1h1m7 0h2m1 0h3m8 0h1m23 0h1m-49 1h2m2 0h1m1 0h2m2 0h4m10 0h1m23 0h1m-48 1h2m3 0h1m5 0h1m1 0h1m7 0h1m25 0h1m9 0h1m-54 1h1m9 0h1m3 0h4m3 0h1m-22 1h1m9 0h1m3 0h4m3 0h1m-13 1h1m1 0h1m1 0h1m11 2h1m0 1h1m-30 1h1m1 0h1m9 0h1m-11 1h2m1 0h2m4 0h1m1 0h1m35 0h2m-46 1h2m5 0h1m-10 1h2m20 0h1m9 0h1m11 0h1m6 0h1m-19 2h1"/><path stroke="#fac094" d="M31 12h1m1 0h1m0 1h1m-16 1h1m17 0h1m-21 1h1m20 2h1m-22 1h1m20 0h1m6 0h1m-35 1h1m3 0h1m2 0h1m19 0h1m-26 1h1m2 0h1m20 0h1m-25 1h1m2 0h1m20 0h1m-23 1h1m11 0h1m10 0h1m3 0h1m4 0h1m-34 1h1m23 0h1m-14 1h1m11 0h2m4 0h1m4 0h1m-16 1h2m10 0h1m-12 1h1m-28 2h1m4 0h1m1 0h1m-4 1h1m12 0h2m13 0h1m2 0h1m-23 1h1m10 0h1m-16 1h1m10 0h2m5 0h1m4 0h1m-30 1h1m5 0h1m38 0h1m-54 1h1m7 0h1m6 0h1m8 0h1m-25 1h1m1 0h1m18 0h1m-20 1h2m45 0h1m-49 1h1m1 0h1m1 0h1m10 0h3m2 0h1m11 0h1m-30 1h1m27 0h1m17 0h1m-34 1h1m33 0h2m-33 1h1m-9 1h2m4 0h2m2 0h3m-1 1h2m27 0h1m-20 1h1m5 0h1m1 0h1m8 0h1m1 0h2m-21 1h1m5 0h1m1 0h1m8 0h1m1 0h2m-34 1h1m31 0h2m-47 1h1m9 0h1m14 0h1m20 0h1m-48 1h1m1 0h1m8 0h2m-13 1h1m1 0h1m8 0h2m24 0h1m-38 1h1m2 0h1m6 0h1m1 0h1m15 0h1m3 0h1m3 0h1m11 0h1m-49 1h1m2 0h1m2 0h1m20 0h1m5 0h3m-33 1h1m2 0h3m26 0h1m11 1h1m-12 1h1m2 0h1"/><path stroke="#fec493" d="M25 11h5m-6 1h7m3 0h1m-14 1h1m1 0h11m1 0h2m-17 1h15m-17 1h19m-21 1h22m2 0h1m-26 1h23m2 0h3m-28 1h2m1 0h20m2 0h3m-29 1h1m1 0h2m1 0h19m3 0h4m-35 1h1m1 0h1m1 0h2m1 0h20m1 0h1m3 0h4m2 0h1m-39 1h1m1 0h1m1 0h2m1 0h20m1 0h1m3 0h4m2 0h1m-38 1h4m1 0h11m1 0h10m5 0h4m-37 1h3m2 0h23m5 0h5m-39 1h3m2 0h11m1 0h11m7 0h3m-39 1h4m3 0h18m15 0h1m-42 1h6m2 0h17m-25 1h6m2 0h14m-24 1h2m1 0h4m3 0h13m13 0h1m-37 1h6m3 0h1m1 0h6m4 0h1m13 0h2m-38 1h8m3 0h5m12 0h1m5 0h1m2 0h1m4 0h1m-43 1h7m6 0h2m10 0h1m3 0h1m6 0h1m-37 1h6m17 0h1m-25 1h7m-7 1h1m1 0h5m12 0h1m14 0h1m13 0h1m4 0h1m-55 1h2m2 0h3m16 0h1m26 0h1m-51 1h1m30 0h1m18 0h2m-36 1h5m30 0h1m5 0h1m-40 1h2m7 1h1m23 0h1m-32 1h2m3 0h3m23 0h1m1 0h1m8 0h1m-52 1h5m3 0h5m26 0h2m11 0h1m-54 1h8m2 0h3m6 0h1m19 0h2m1 0h1m-43 1h8m2 0h3m6 0h1m19 0h2m1 0h1m-46 1h7m2 0h2m14 0h1m16 0h1m13 0h1m-58 1h2m1 0h6m2 0h1m30 0h2m5 0h1m-50 1h1m1 0h1m1 0h6m1 0h1m17 0h1m9 0h2m7 0h2m-50 1h1m1 0h1m1 0h8m18 0h1m18 0h2m5 0h1m-54 1h1m1 0h6m25 0h1m18 0h2m-49 1h3m1 0h1m3 0h1m16 0h1m14 0h1m2 0h1m2 0h2m-45 1h1m12 0h2m9 0h1m4 0h1m7 0h1m5 0h1m-37 1h1m20 0h1m4 0h3m-8 1h1"/><path stroke="#fdd2a9" d="M22 12h1m-14 11h1m29 7h2m-11 1h3m2 0h1m-8 1h1m9 1h1m-5 3h1m16 0h1m-23 2h1m4 0h1m-12 1h2m3 0h1m23 1h1m-18 2h1m-1 1h1m-20 1h2m15 0h1m1 0h1m16 0h1m-36 1h2m27 0h3m-31 1h1m16 0h1m13 0h1m14 0h2m-31 1h2m28 0h1m-32 1h3m21 0h2m-37 1h1m9 0h3m9 0h1m14 0h1m-34 1h1m2 0h2m2 0h1m5 0h1m14 0h1m1 0h1m2 0h2m2 0h1m-38 1h1m2 0h3m9 0h1m7 0h2"/><path stroke="#f9e8d3" d="M42 30h4m-10 1h3m-10 1h9m4 0h8m-23 1h10m4 0h10m1 0h2m-28 1h4m1 0h5m4 0h11m1 0h3m-29 1h3m2 0h1m1 0h2m4 0h12m2 0h4m-33 1h5m1 0h1m6 0h14m3 0h5m-36 1h5m1 0h1m6 0h3m1 0h12m2 0h5m-37 1h7m6 0h4m1 0h13m2 0h6m-36 1h3m7 0h18m2 0h7m-58 1h1m29 0h2m1 0h15m4 0h7m-29 1h2m1 0h5m4 0h6m4 0h8m-34 1h1m6 0h5m5 0h4m6 0h7m-34 1h1m6 0h5m5 0h4m6 0h7m-35 1h4m3 0h2m2 0h2m2 0h1m1 0h5m2 0h2m2 0h8m-40 1h10m1 0h2m3 0h1m3 0h1m3 0h1m2 0h4m2 0h7m-41 1h11m3 0h2m4 0h3m3 0h6m2 0h6m-40 1h11m4 0h7m1 0h1m1 0h8m2 0h5m-41 1h11m8 0h2m2 0h1m1 0h9m3 0h3m-38 1h8m6 0h2m6 0h9m5 0h1m-38 1h3m1 0h2m9 0h1m1 0h2m3 0h2m1 0h6m-27 1h2m5 0h1m2 0h1m2 0h1m4 0h1m1 0h2m-4 1h1m9 0h1"/><path stroke="#ffffe8" d="M41 31h8m1 0h1m-12 1h3m8 0h5m-16 1h2m10 0h1m2 0h2m-26 1h1m7 0h2m15 0h1m-27 1h2m1 0h1m4 0h2m18 0h1m-29 1h1m6 0h1m-9 1h1m6 0h1m3 0h1m-1 1h1m-6 1h1m1 1h1m-1 1h1m5 0h4m-17 1h1m15 0h2m-18 1h1m15 0h2m-22 1h4m9 0h2m5 0h1m-22 1h1m13 0h3m1 0h3m-22 1h1m16 0h4m-21 1h1m24 0h1m-2 1h1m-2 1h1m-9 1h1m6 0h1m-7 1h2m4 0h1"/></g></svg>