<svg xmlns="http://www.w3.org/2000/svg" width="680" height="620" viewBox="0 0 68 62" shape-rendering="crispEdges" stroke-width="1"><g transform="translate(0 .5)"><path stroke="#2c0d0d" d="M34 9h2m-9 1h1m-4 1h1m2 0h1m9 0h2m-19 3h1m22 0h1m1 1h1m-28 1h1m-2 1h1m-2 2h1m37 3h1m-44 1h1m33 0h1m8 0h1m-45 1h1m43 0h1m-10 1h1m8 0h1m-9 1h1m7 0h1m-14 1h1m4 0h1m6 0h1m-17 1h1m2 0h1m5 0h1m6 0h1m-37 1h1m19 0h4m6 0h2m3 0h1m-36 1h1m32 0h2m-23 1h1m21 0h3m-26 1h1m25 0h1m-37 1h1m4 0h5m28 0h1m-39 1h1m14 0h3m21 0h1m-40 1h2m12 0h1m1 0h2m-19 1h1m1 0h1m12 0h3m-19 1h1m3 0h2m11 0h2m-26 1h1m4 0h1m3 0h1m3 0h1m15 0h1m-28 1h1m5 0h1m20 0h1m14 0h1m-22 1h1m12 0h1m7 0h1m-20 1h1m5 0h1m3 0h2m7 0h1m-40 1h1m20 0h1m18 0h1m-1 1h1m-43 1h1m20 0h1m20 0h1m-23 1h1m5 0h1m9 0h1m5 0h1m-33 1h1m7 0h1m11 0h1m12 0h1m-33 1h1m31 0h1m-46 1h1m12 0h1m4 0h1m27 0h2m-48 1h1m12 0h3m2 0h1m27 0h5m-50 1h1m10 0h8m8 0h1m16 0h1m2 0h2m-47 1h9m8 0h8m1 0h15"/><path stroke="#954837" d="M28 9h2m2 0h1m3 0h1m-11 1h1m3 0h2m1 0h1m-9 1h2m12 0h1m-18 1h2m16 0h3m-23 1h1m19 0h1m1 0h2m-23 1h1m20 0h1m2 0h1m-28 1h2m22 0h3m-28 1h1m29 0h2m-2 1h3m-34 1h2m25 0h1m7 0h1m-37 1h1m28 0h1m6 0h2m-39 1h2m28 0h1m7 0h2m-42 1h2m30 0h2m7 0h1m-42 1h1m32 0h1m-29 2h1m27 0h2m-38 1h1m36 0h1m-38 1h1m43 0h1m-45 1h1m6 0h1m30 0h1m-40 1h1m7 0h2m23 0h5m1 0h2m3 0h1m-45 1h1m7 0h1m24 0h1m7 0h1m-43 1h1m31 0h1m9 0h1m-43 1h1m9 0h2m19 0h1m-32 1h1m9 0h2m8 0h1m9 0h1m-31 1h1m28 0h1m18 0h1m-49 1h1m11 0h1m-4 1h1m16 0h1m17 0h1m6 0h1m-51 1h1m11 0h1m31 0h1m5 0h1m-51 1h2m8 0h2m18 0h1m13 0h1m-43 1h1m2 0h1m1 0h1m3 0h3m1 0h1m9 0h2m18 0h1m5 0h1m-50 1h1m1 0h2m5 0h1m3 0h4m4 0h4m-19 1h1m1 0h1m12 0h1m1 0h2m9 0h1m16 0h1m-48 1h2m17 0h1m20 0h1m7 0h1m-48 1h1m3 0h1m14 0h1m4 0h1m12 0h1m9 0h1m-50 1h1m2 0h2m1 0h2m13 0h3m3 0h1m10 0h2m10 0h1m-44 1h2m12 0h1m2 0h1m11 0h2m12 0h1m-53 1h1m9 0h2m8 0h1m7 0h1m7 0h1m7 0h1m7 0h1m-54 1h1m12 0h1m16 0h2m1 0h4m16 0h1m-54 1h1m11 0h1m6 0h1m9 0h1m23 0h1m-40 1h2m13 0h1m3 0h1m17 0h2m-45 1h1m3 0h1m3 0h2m11 0h1m3 0h1m-32 1h2m4 0h1m18 0h1m1 0h2m2 0h2m2 0h1m6 0h1m1 0h2m-46 1h1m41 0h1m-6 1h2"/><path stroke="#da8967" d="M28 10h1m5 0h1m1 0h1m-1 1h1m4 0h1m-18 1h1m14 0h1m-19 1h3m17 0h1m2 1h1m-25 1h1m25 0h1m-28 1h1m22 0h1m2 0h2m-29 1h1m24 0h1m-2 1h1m1 0h1m4 0h2m-8 1h1m1 0h1m-30 1h1m26 0h1m1 0h2m-33 1h3m29 0h1m7 0h1m-39 1h1m26 0h2m1 0h1m-35 1h1m4 0h1m26 0h1m1 0h3m3 0h2m-43 1h1m4 0h1m27 0h1m2 0h2m1 0h1m2 0h1m-44 1h1m33 0h1m2 0h2m4 0h1m-44 1h1m6 0h1m23 0h2m4 0h2m1 0h3m-38 1h1m1 0h1m18 0h2m10 0h5m-46 1h1m1 0h1m5 0h1m20 0h1m1 0h2m9 0h3m-45 1h1m7 0h1m34 0h2m-37 1h2m1 0h1m10 0h1m-15 1h2m10 0h2m-14 1h2m2 0h1m9 0h1m-14 1h2m1 0h1m2 0h1m5 0h1m-15 1h4m2 0h1m2 0h4m9 0h1m14 0h1m-44 1h1m3 0h4m1 0h1m2 0h1m36 0h1m-51 1h1m1 0h3m1 0h4m4 0h1m-12 1h6m6 0h1m9 0h1m26 0h1m-49 1h2m11 0h1m1 0h1m5 0h1m27 0h1m-47 1h1m3 0h1m1 0h3m4 0h4m29 0h1m-44 1h1m1 0h4m4 0h4m23 0h1m-39 1h5m11 0h1m2 0h1m16 0h1m-40 1h1m3 0h2m1 0h2m31 0h1m-40 1h2m2 0h1m2 0h1m11 0h1m28 0h1m-50 1h1m8 0h1m9 0h1m2 0h2m-7 1h1m2 0h1m15 0h1m-26 1h1m4 0h1m8 0h2m14 0h1m-31 1h1m3 0h1m14 0h2m11 0h1m5 0h1m-45 1h1m2 0h2m3 0h2m27 0h1m-45 1h1m1 0h2m6 0h1m33 0h1m5 0h1m-48 1h3m2 0h3m24 0h1m-9 1h1m9 1h1m2 0h1"/><path stroke="#f6a377" d="M32 10h1m-2 1h1m1 0h1m1 0h1m-11 1h1m13 1h1m1 1h1m-1 1h1m-1 1h1m1 0h1m-3 1h2m1 0h1m-4 1h1m3 0h1m2 0h1m-7 1h1m3 0h1m3 0h1m-10 1h2m4 0h1m3 0h1m-35 1h1m21 0h1m1 0h3m3 0h1m2 0h3m-40 1h1m3 0h2m19 0h2m1 0h2m4 0h2m3 0h2m-38 1h1m1 0h1m17 0h8m6 0h1m-36 1h1m2 0h1m15 0h10m5 0h1m2 0h1m-42 1h1m4 0h2m14 0h12m5 0h4m-38 1h2m11 0h1m2 0h10m2 0h3m3 0h1m-25 1h11m2 0h3m1 0h1m2 0h1m-32 1h1m4 0h1m4 0h12m-22 1h1m3 0h2m2 0h15m-29 1h1m3 0h3m4 0h10m1 0h3m5 0h1m-28 1h4m4 0h8m3 0h1m-22 1h3m1 0h2m5 0h5m1 0h1m9 0h1m-29 1h3m1 0h4m4 0h2m-14 1h6m7 0h2m4 0h1m-19 1h3m9 0h1m30 0h1m-41 1h1m9 0h1m12 0h1m-13 1h2m28 0h1m-29 1h1m1 0h1m2 0h2m20 0h1m-30 2h4m-6 1h2m28 0h1m-36 1h1m15 0h2m17 0h1m-30 1h1m9 0h1m20 0h1m1 0h1m-33 1h1m7 0h1m16 0h1m4 0h1m1 0h1m-33 1h2m4 0h1m7 0h1m2 0h1m5 0h1m-26 1h1m3 0h1m2 0h1m-4 1h3m-17 1h1m1 0h2m-3 1h1m2 0h1m4 0h1m17 0h1m-22 1h1m18 0h1m16 0h1"/><path stroke="#fac094" d="M29 10h1m5 0h1m-8 1h1m1 0h1m3 0h1m-8 1h2m1 0h1m1 0h4m-12 1h1m2 0h3m2 0h7m-20 1h1m2 0h2m10 0h1m2 0h4m-19 1h1m1 0h1m8 0h1m4 0h3m-18 1h2m6 0h2m4 0h4m-22 1h1m4 0h1m2 0h1m6 0h1m2 0h4m4 0h2m3 0h1m-33 1h3m3 0h1m10 0h1m3 0h2m5 0h1m-30 1h3m9 0h1m3 0h1m1 0h1m3 0h3m6 0h2m-37 1h1m3 0h4m2 0h2m4 0h1m4 0h2m3 0h2m7 0h1m-29 1h1m3 0h1m4 0h1m8 0h1m1 0h1m8 0h1m-35 1h1m3 0h2m13 0h3m3 0h1m8 0h3m-39 1h3m3 0h2m10 0h2m16 0h1m1 0h1m-40 1h1m1 0h1m14 0h1m21 0h1m-40 1h4m2 0h3m7 0h1m2 0h1m-21 1h1m1 0h2m8 0h2m-15 1h5m3 0h1m5 0h1m18 0h2m-35 1h4m-5 1h1m1 0h3m-5 1h3m21 0h1m3 0h1m-30 1h1m22 0h1m5 0h1m12 0h1m-43 1h1m3 0h1m12 0h1m4 0h1m-2 1h1m20 0h1m-45 1h1m0 1h1m15 0h1m29 1h1m5 0h1m-34 1h1m4 0h1m22 1h1m-3 1h1m1 0h2m-41 1h1m35 0h2m2 0h1m4 0h1m-38 1h5m27 0h1m-34 1h4m24 0h1m4 0h1m-33 1h1m25 0h2m5 0h1m-33 1h1m26 0h2m3 0h1m5 0h1m-51 1h1m28 0h1m3 0h1m10 0h2m4 0h1m-36 1h1m28 0h2m4 0h1m-52 1h1m8 0h2m16 0h1m1 0h1m13 0h1m2 0h3m-22 1h1m14 0h2m3 0h3m-19 1h1m4 0h1m4 0h1m1 0h1m-25 1h1m11 0h1m2 0h1m2 0h1m3 0h1m-31 1h7m18 1h1"/><path stroke="#fec493" d="M29 11h1m2 0h1m-7 1h1m2 0h1m1 0h1m4 0h3m-14 1h2m3 0h2m-8 1h3m1 0h6m1 0h2m-16 1h1m1 0h1m1 0h2m2 0h4m1 0h4m-18 1h3m2 0h3m5 0h4m7 0h1m-25 1h4m1 0h1m4 0h4m1 0h2m-16 1h3m2 0h2m1 0h6m1 0h3m8 0h1m-28 1h7m1 0h1m1 0h3m1 0h1m1 0h3m8 0h1m-27 1h2m2 0h4m1 0h4m2 0h3m10 0h2m-33 1h2m1 0h3m1 0h4m1 0h8m10 0h1m-35 1h1m6 0h13m3 0h1m-17 1h10m2 0h3m-23 1h1m5 0h10m1 0h4m-13 1h7m1 0h2m-19 1h1m5 0h5m2 0h3m1 0h2m-12 1h5m-6 1h1m1 0h4m-14 1h1m9 0h2m12 1h3m-28 1h2m0 2h1m16 1h1m-7 1h1m1 0h3m-4 1h3m3 2h1m1 3h1m-8 2h1m-6 1h1m5 0h1m-1 1h2m-16 1h1m14 0h1m-7 2h1m-5 1h2m1 0h1"/><path stroke="#fdd2a9" d="M25 10h1m11 0h1m-11 4h1m-1 1h2m-1 1h3m-5 1h1m1 0h2m-5 1h1m2 0h1m-15 1h1m12 0h1m4 12h1m3 0h1m-6 1h1m-26 1h1m28 0h1m14 1h1m1 0h1m-26 1h1m-2 1h1m24 0h1m-27 1h1m3 0h2m23 0h1m-39 1h1m11 0h1m21 0h2m-2 1h2m7 0h1m1 0h1m-12 1h1m-23 1h1m20 0h2m5 0h1m4 0h1m-36 1h6m4 0h1m10 0h1m1 0h1m6 0h1m-45 1h1m12 0h7m14 0h3m-35 1h3m9 0h5m7 0h2m5 0h3m9 0h1m3 0h1m-49 1h1m2 0h5m6 0h2m13 0h3m5 0h1m2 0h1m4 0h1m2 0h1m-50 1h8m33 0h1m4 0h1m-47 1h3m3 0h1m23 0h1m10 0h1m6 0h2m-50 1h1m2 0h3m1 0h1m16 0h2m2 0h1m1 0h1m9 0h1m-24 1h2m4 0h3m2 0h2m4 0h1m1 0h1m2 0h1m1 0h1m-23 1h1m3 0h1m5 0h1m7 0h3m-23 1h1m16 1h1"/><path stroke="#fee4c5" d="M8 27h1m37 2h1m-14 2h3m-4 1h4m15 0h1m-22 1h3m1 0h1m16 0h1m-23 1h3m17 0h1m-22 1h4m18 0h1m2 0h1m-27 1h5m25 0h1m-31 1h2m6 0h1m15 0h1m5 0h2m-22 1h1m17 0h1m-19 1h1m11 0h1m-15 1h1m12 0h2m6 0h1m2 0h1m-31 1h2m17 0h1m10 0h2m-13 1h1m8 0h1m3 0h1m-25 1h1m19 0h1m-41 1h2m21 0h2m2 0h1m13 0h3m-47 1h2m20 0h1m14 0h1m7 0h2m-41 1h1m12 0h1m3 0h1m21 0h1m1 0h1m-47 1h3m1 0h1m10 0h1m6 0h1m3 0h1m3 0h1m-17 1h1m11 0h1m6 0h1m-18 1h1m12 0h1m-13 1h3"/><path stroke="#f9e8d3" d="M15 18h1m27 11h3m-40 1h1m33 0h9m-43 1h1m32 0h11m-44 1h1m31 0h13m1 0h1m-20 1h1m3 0h13m2 0h3m-23 1h1m4 0h12m4 0h4m-21 1h14m4 0h2m-20 1h15m3 0h3m-21 1h1m2 0h11m5 0h2m-49 1h1m26 0h2m2 0h11m6 0h3m-43 1h1m18 0h2m2 0h6m1 0h3m7 0h3m-23 1h8m2 0h2m9 0h2m-23 1h4m1 0h3m3 0h1m9 0h2m-22 1h2m2 0h3m2 0h1m11 0h3m-23 1h1m3 0h4m12 0h4m-20 1h2m-10 1h2m16 0h1m-22 1h2m1 0h3m10 0h6m7 0h1m-30 1h6m9 0h7m-23 1h6m8 0h4m1 0h3m-20 1h3m10 0h1m3 0h2m9 1h1m-6 1h1m-4 1h1"/><path stroke="#ffffe8" d="M42 29h1m10 3h1m2 3h1m-20 2h1m12 0h1m-6 2h1m0 2h1m-7 1h1m3 0h2m-5 1h1"/></g></svg>