<svg xmlns="http://www.w3.org/2000/svg" width="680" height="620" viewBox="0 0 68 62" shape-rendering="crispEdges" stroke-width="1"><g transform="translate(0 .5)"><path stroke="#2c0d0d" d="M30 25h2m3 1h1m-9 1h3m3 0h1m1 0h1m-10 1h1m2 0h1m4 0h1m1 0h4m-17 1h3m-5 1h1m19 0h1m-22 1h1m25 0h1m-28 1h1m-2 1h1m-2 1h1m29 0h2m-34 1h2m1 0h1m30 0h2m-39 1h1m38 0h2m-42 1h1m39 0h1m2 0h1m-44 1h1m43 0h1m-48 1h2m46 0h1m-50 1h1m48 0h2m-52 1h1m50 0h1m-53 1h1m53 0h1m-58 2h1m-1 1h1m14 2h1m20 0h3m-25 1h1m-1 1h1m6 0h3m36 0h1m-49 1h5m28 0h4m10 0h1m-57 1h1m6 0h1m32 0h1m-41 1h1m47 0h1m1 0h1m-49 1h1m1 0h1m45 0h1m2 0h1m-52 1h3m21 0h4m21 0h1m-49 1h1m21 0h5m-27 1h1m22 0h3m-11 1h1m8 0h1m17 0h1m3 0h1m-45 1h1m12 0h4m5 0h1m5 0h2m10 0h1m3 0h1m-45 1h3m9 0h1m4 0h5m1 0h5m3 0h1m8 0h4m-41 1h10m19 0h9"/><path stroke="#da8967" d="M28 28h1m10 1h4m0 1h1m-22 1h1m22 1h2m-29 2h1m30 0h1m-4 1h2m4 0h1m-40 1h1m38 1h2m-44 2h1m43 0h2m-39 1h1m29 1h1m10 0h1m-12 1h1m10 0h1m-56 1h2m43 0h1m12 0h1m-59 1h2m11 0h1m31 0h2m11 0h1m-46 1h1m31 0h3m9 0h3m-49 1h3m19 0h1m11 0h3m10 0h2m-60 1h1m9 0h4m9 0h2m9 0h1m9 0h5m8 0h3m-56 1h2m1 0h6m1 0h1m8 0h2m9 0h1m2 0h1m6 0h5m5 0h6m-56 1h2m1 0h6m1 0h1m29 0h2m1 0h2m5 0h4m-56 1h3m1 0h5m32 0h1m4 0h2m2 0h6m1 0h1m-57 1h1m1 0h4m32 0h1m6 0h1m1 0h8m-54 1h1m1 0h3m30 0h1m11 0h1m1 0h5m-53 1h1m47 0h2m1 0h1m-38 2h1m12 0h1m4 0h1m-18 1h1m10 0h1m15 0h1m3 0h1m-46 1h1m14 0h2m5 0h1m1 0h1m6 0h1m-28 1h1m13 0h5m1 0h5m5 0h1m-31 1h2m2 0h1m2 0h1m22 0h1m5 0h1"/><path stroke="#f6a377" d="M27 28h1m-2 1h2m5 0h1m4 0h1m-17 1h1m17 0h1m-21 2h1m4 0h1m16 0h1m1 1h1m-26 1h1m25 0h2m1 1h1m-2 3h1m5 0h2m-37 1h1m28 0h1m-1 1h1m0 1h1m-1 1h1m-34 1h3m21 0h1m9 0h1m-36 1h2m1 0h1m6 0h2m7 0h1m3 0h4m2 0h1m6 0h1m9 0h1m-48 1h3m1 0h2m4 0h4m1 0h1m2 0h4m1 0h9m2 0h1m-45 1h2m7 0h2m3 0h2m3 0h14m1 0h1m4 0h4m1 0h1m3 0h1m6 0h3m-57 1h1m1 0h3m1 0h3m7 0h3m5 0h2m1 0h1m3 0h2m6 0h4m5 0h1m2 0h5m-56 1h1m1 0h1m2 0h1m8 0h1m1 0h1m1 0h1m22 0h2m5 0h1m2 0h2m-53 1h1m1 0h1m2 0h1m8 0h2m26 0h1m2 0h1m2 0h2m1 0h2m4 0h1m-54 1h1m44 0h2m-48 1h1m5 0h1m6 0h1m31 0h1m-45 1h1m12 0h1m-12 1h1m30 0h1m11 0h2m-46 3h1m12 0h1m1 0h1m15 0h1m-28 1h1m8 0h1m11 0h1m4 0h1m-20 1h1m1 0h1m30 0h1m-12 1h1m1 0h1"/><path stroke="#fac094" d="M30 27h1m-1 1h1m2 0h1m1 0h1m6 2h1m-22 1h1m1 0h1m2 1h1m-4 1h1m19 0h1m1 0h2m-27 1h1m-4 1h1m1 0h1m25 0h1m4 1h1m-39 1h1m4 0h1m1 0h1m27 0h1m-38 1h1m1 0h1m4 0h1m1 0h1m26 0h1m5 0h1m-36 1h1m30 0h1m-1 1h1m2 0h5m-48 1h1m43 0h1m2 0h2m-19 1h1m-34 1h1m8 0h1m9 0h2m7 0h1m3 0h1m2 0h1m2 0h1m6 0h1m8 0h2m-38 1h1m2 0h2m4 0h1m3 0h1m4 0h1m2 0h1m2 0h1m3 0h1m-49 1h1m2 0h1m5 0h1m9 0h1m4 0h1m1 0h1m15 0h1m11 0h3m-50 1h2m8 0h2m16 0h1m2 0h1m4 0h1m5 0h1m2 0h2m-48 1h1m20 0h1m3 0h1m7 0h1m-38 1h1m13 0h1m8 0h1m14 0h1m9 0h2m-50 1h1m20 0h1m27 0h1m-36 1h1m2 0h1m-4 1h1m-14 1h1m15 2h1m7 0h1m24 0h1m-47 1h1m19 0h1m24 0h1m-18 1h1m-28 1h3m13 0h2m8 0h3m4 0h1m-33 1h2m28 0h2m-27 1h1m4 0h1"/><path stroke="#fec493" d="M30 26h1m1 0h1m-1 1h1m1 0h1m-7 2h3m1 0h1m1 0h4m-15 1h17m-16 1h1m1 0h20m-23 1h1m3 0h5m1 0h9m1 0h2m-26 1h3m2 0h5m1 0h1m1 0h11m4 0h1m-27 1h1m3 0h3m3 0h1m1 0h12m-25 1h3m2 0h1m4 0h15m-31 1h1m1 0h10m2 0h22m-37 1h4m1 0h1m2 0h5m1 0h11m1 0h8m1 0h3m-38 1h4m1 0h1m1 0h26m2 0h4m-41 1h6m2 0h5m1 0h13m1 0h8m2 0h5m-46 1h9m1 0h5m1 0h23m2 0h2m-44 1h1m1 0h38m2 0h3m1 0h2m4 0h1m-54 1h32m1 0h8m2 0h9m2 0h1m-55 1h8m4 0h6m2 0h7m1 0h3m1 0h1m2 0h2m1 0h4m3 0h8m-54 1h9m4 0h5m5 0h4m2 0h2m6 0h1m2 0h2m5 0h8m2 0h1m-59 1h2m1 0h5m7 0h3m8 0h1m4 0h1m10 0h1m4 0h6m-52 1h5m9 0h1m19 0h2m12 0h2m2 0h1m-53 1h1m12 0h2m3 0h3m6 0h2m7 0h1m11 0h2m-34 1h1m1 0h1m1 0h1m3 0h8m2 0h1m1 0h2m1 0h1m-25 1h2m5 0h5m2 0h4m3 0h5m-20 1h2m1 0h1m5 0h1m3 0h7m-24 1h1m1 0h1m3 0h1m12 0h3m6 0h1m-28 1h1m27 0h2m-31 1h1m12 1h1m4 0h1m12 0h2m-45 1h1m12 0h3m24 0h1m1 0h2m1 0h1m-46 1h2m1 0h1m11 0h1m4 0h1m4 0h1m2 0h2m3 0h1m7 0h3m-40 1h1m1 0h2m1 0h2m7 0h3m4 0h1m5 0h2m1 0h1m1 0h4m1 0h3m-40 1h6m1 0h1m22 0h6m1 0h2m-38 1h1m2 0h2m25 0h4"/><path stroke="#fdd2a9" d="M31 26h1m2 0h1m-4 1h1m-1 1h2m-2 1h1m-7 2h1m-5 1h2m1 0h1m7 0h1m-11 1h1m6 0h1m1 0h1m-10 1h3m3 0h3m1 0h1m-10 1h2m1 0h4m-15 1h1m10 0h2m-8 1h1m5 0h1m11 0h1m-15 2h1m13 0h1m-16 1h1m0 8h1m13 0h1m-17 1h1m9 0h2m4 0h3m-21 1h2m1 0h3m2 0h1m1 0h5m1 0h3m-25 1h3m1 0h1m2 0h1m1 0h1m1 0h3m1 0h6m1 0h5m5 0h4m-38 1h3m1 0h1m5 0h1m1 0h3m2 0h2m2 0h3m1 0h5m3 0h1m1 0h1m2 0h1m-40 1h2m2 0h1m8 0h2m3 0h2m1 0h1m2 0h2m1 0h3m5 0h1m5 0h1m-42 1h1m1 0h1m2 0h1m6 0h1m1 0h3m1 0h1m6 0h1m2 0h1m-26 1h1m11 0h3m7 0h4m2 0h2m7 0h1m-36 1h1m1 0h1m1 0h2m5 0h3m6 0h1m4 0h2m3 0h1m1 0h2m-35 1h1m2 0h1m2 0h1m23 0h1"/><path stroke="#f9e8d3" d="M47 32h1m-46 11h1m-1 3h1m-1 1h1m14 4h1m17 0h1m25 0h1m-47 1h1m1 0h4m6 0h2m2 0h2m3 0h1m6 0h2m1 0h1m1 0h2m-37 1h2m1 0h6m1 0h1m2 0h3m2 0h1m1 0h2m2 0h1m4 0h4m1 0h5m-42 1h1m1 0h1m1 0h2m1 0h5m2 0h1m3 0h1m8 0h2m2 0h12m-42 1h3m1 0h7m19 0h1m2 0h6m-38 1h1m1 0h2m1 0h1m1 0h1m6 0h1m17 0h2m1 0h1m-8 2h1"/></g></svg>