<svg xmlns="http://www.w3.org/2000/svg" width="430" height="440" viewBox="0 0 43 44" shape-rendering="crispEdges" stroke-width="1"><g transform="translate(0 .5)"><path stroke="#25211c" d="M32 15h3m-5 1h5m-6 1h7m-22 1h6m4 0h12m-27 1h1m2 0h4m3 0h5m5 0h7m-27 1h1m4 0h1m1 0h2m14 0h4m-28 1h1m5 0h1m1 0h4m14 0h2m-28 1h1m3 0h4m2 0h3m13 0h2m-29 1h1m3 0h5m3 0h3m12 0h2m-29 1h1m3 0h1m3 0h2m3 0h2m10 0h2m1 0h1m-29 1h1m3 0h1m3 0h3m1 0h3m10 0h2m1 0h1m-30 1h2m3 0h1m4 0h4m4 0h2m7 0h1m1 0h3m-32 1h2m2 0h2m4 0h2m5 0h4m5 0h2m2 0h1m-31 1h2m3 0h3m1 0h2m5 0h1m1 0h3m-21 1h1m5 0h3m1 0h1m7 0h3m-20 1h1m2 0h1m5 0h1m3 0h2m7 0h3m-24 1h2m-2 1h1m12 0h2m-16 1h1m0 1h1m21 0h1m-23 1h1m24 0h2m-28 1h1m16 0h1m2 0h1m6 0h1m-28 1h1m16 0h4m6 0h1m-28 1h1m9 0h1m1 0h1m5 0h1m2 0h1m5 0h1m-28 1h1m7 0h1m10 0h1m1 0h1m5 0h1m-28 1h1m5 0h4m3 0h1m5 0h1m2 0h5m-27 1h1m4 0h1m8 0h1m3 0h1m-18 1h2m12 0h3"/><path stroke="#46413a" d="M11 19h1m4 0h3m5 0h5m-14 1h1m2 0h4m1 0h4m1 0h4m-22 1h1m4 0h1m4 0h3m1 0h2m3 0h1m2 0h2m-23 1h1m9 0h2m2 0h2m2 0h1m3 0h1m-26 1h1m13 0h1m3 0h1m-18 1h2m-5 1h1m2 0h2m-3 1h1m14 0h1m-16 1h2m8 0h2m2 0h1m-6 1h2m13 0h2m1 0h1m-29 1h1m1 0h3m5 0h3m15 0h1m-28 1h2m1 0h4m2 0h1m6 0h2m8 0h1m-25 1h4m1 0h1m-6 1h2m3 0h1m4 0h1m2 0h1m9 0h1m-26 1h1m1 0h1m3 0h2m5 0h2m6 0h4m-24 1h1m5 0h1m3 0h1m9 0h1m1 0h2m-24 1h1m5 0h1m5 0h4m2 0h1m3 0h2m-25 1h3m11 0h2m9 0h1m-26 1h4m-3 1h1m8 0h1m-3 1h1m3 0h1m-8 2h2m-8 1h1m2 0h1m10 0h1m3 0h1m-4 1h3"/><path stroke="#827a6c" d="M10 19h1m-1 1h4m8 0h1m4 0h1m-19 1h1m1 0h3m9 0h1m2 0h3m1 0h2m-23 1h2m12 0h2m2 0h2m1 0h3m-24 1h2m12 0h3m1 0h7m-26 1h1m13 0h10m2 0h1m-27 1h1m15 0h8m-23 1h2m15 0h6m-5 1h1m2 0h2m-24 1h3m16 0h1m-20 1h1m20 0h3m2 0h1m-2 2h1m-2 1h1m-5 2h1m-1 1h3m0 3h2m-4 1h2"/><path stroke="#908676" d="M22 25h2m-4 1h3m-3 1h2m-3 1h3m1 0h1m-9 1h1m4 0h1m-6 1h1m2 0h2m2 0h1m-9 1h1m1 0h4m-11 1h1m2 0h3m1 0h4m-11 1h1m1 0h3m2 0h5m-11 1h5m1 0h3m1 0h8m-18 1h5m1 0h5m-10 1h4m3 0h4m4 0h1m-15 1h3m4 0h5m-16 1h1m1 0h5m1 0h1m4 0h1m1 0h1m-15 1h4m-1 1h1m8 0h1m0 1h2"/><path stroke="#dcd2ba" d="M34 25h1m-3 1h1m1 0h1m-7 1h2m4 0h2m-8 1h4m2 0h1m-14 1h3m3 0h2m3 0h2m-11 1h1m2 0h3m3 0h2m-14 1h13m-9 1h8m-9 1h6m-4 2h2m-12 1h3m7 0h1m2 0h5m-18 1h4m9 0h6m-19 1h1m4 0h1m1 0h1m1 0h1m4 0h2m2 0h1m-26 1h1m4 0h2m6 0h5m5 0h3m-26 1h4m10 0h4m-18 1h4m12 0h1"/><path stroke="#d0624c" d="M16 22h2m-2 1h3m-2 1h3m-2 1h1"/></g></svg>